<svg width="160" height="44" viewBox="0 0 160 44" fill="none" xmlns="http://www.w3.org/2000/svg">
<g clip-path="url(#clip0)">
<path d="M16.7189 27.8406C19.3189 26.3095 21.9509 24.8191 24.5493 23.2864C26.8277 21.9437 29.0725 20.557 31.3461 19.2033C33.7941 17.7506 36.2677 16.3309 38.7061 14.861C38.8253 14.7837 38.9272 14.6832 39.0053 14.5658V11.0888L21.2245 -0.0078125C21.1973 0.254449 21.1765 0.369089 21.1781 0.480589C21.2117 2.84723 21.2245 5.21543 21.3093 7.58207C21.3237 7.9684 21.5429 8.48193 21.8757 8.70493C23.1557 9.55611 24.5173 10.3115 25.8501 11.1014L28.4533 12.6451C27.4645 13.2733 26.5957 13.8402 25.6933 14.3726C22.0133 16.5351 20.1941 17.5779 17.0773 19.398C14.6453 20.8192 15.2245 20.4973 13.3173 21.5966C8.76208 24.2318 6.48366 25.5494 5.60366 26.0268C4.13166 26.8355 3.11727 27.5108 2.93167 27.6286C2.11407 28.1484 1.01166 28.5112 0.00366211 28.8064V31.8562L4.81808 34.862C5.38608 34.5291 6.00206 34.1647 6.62606 33.8035C7.93327 33.0482 9.24527 32.2975 10.5509 31.5406L12.2629 30.5355C13.7541 29.6545 15.2181 28.7248 16.7189 27.8406Z" fill="#D14D4D"/>
<path d="M38.3514 22.2494C36.6618 22.2494 34.9706 22.2321 33.281 22.2227L27.489 25.6242C27.489 26.601 27.489 27.5935 27.489 28.6206H31.2234C31.113 28.831 31.0986 28.9268 31.0378 28.9614C29.1423 30.0544 27.2442 31.1443 25.3434 32.231C23.6458 33.2078 21.9626 34.2035 20.2442 35.1504C20.0919 35.2189 19.927 35.2562 19.7595 35.2603C19.592 35.2643 19.4254 35.235 19.2698 35.174C17.9066 34.4186 16.6026 33.5847 15.2394 32.8294H15.2266L8.37061 36.856L16.2106 41.7526C17.1818 42.3163 18.1562 42.8754 19.1402 43.4203C19.41 43.5284 19.7068 43.5536 19.9914 43.4926L38.9978 31.6311V22.6357C38.9418 22.3718 38.761 22.2509 38.3514 22.2494Z" fill="white"/>
<path d="M0.135781 25.9273C0.403999 25.8236 0.666718 25.7067 0.922969 25.5771C3.02377 24.3412 5.08299 23.044 7.23979 21.8897C7.99019 21.4893 8.33738 21.0684 8.33258 20.368C8.31978 18.5494 8.31017 16.7309 8.26857 14.9123C8.25418 14.3046 8.51499 13.8837 9.11979 13.579C9.63019 13.3215 10.115 13.0262 10.603 12.7357C12.9246 11.3569 15.243 9.98273 17.5534 8.58191C17.8142 8.42486 18.1038 8.11078 18.1086 7.85637C18.1486 5.32012 18.1342 2.78387 18.1342 0.137695L0.0717773 11.4103C0.0717773 11.4228 0.0717773 11.4354 0.0717773 11.4495C0.0781773 15.9765 0.0781773 20.5041 0.0717773 25.0322C0.0717773 25.2819 0.111781 25.5253 0.135781 25.9273Z" fill="white"/>
<path d="M53.5868 24.6578C52.9004 24.7159 52.2716 24.7458 51.75 24.7458C48.1804 24.7458 48.1804 23.5287 48.1804 21.8577C48.1804 20.1868 48.1804 18.9838 51.75 18.9838C53.1766 18.9914 54.5967 19.1739 55.9772 19.5272V17.137C54.6145 16.817 53.2183 16.6547 51.8172 16.6533H51.2796C46.7084 16.6533 45.4236 18.8237 45.4236 21.4777V22.2393C45.4236 24.8934 46.7036 27.0637 51.2796 27.0637H51.8172C53.3135 27.0582 54.8053 26.9003 56.2684 26.5926V21.842H53.5788L53.5868 24.6578Z" fill="white"/>
<path d="M59.2144 26.7702H68.7904V24.424H61.904V23.1048H67.296V20.7586H61.904V20.7539H59.2144V26.7702Z" fill="white"/>
<path d="M68.7904 16.9453H59.2144V19.2648H68.7904V16.9453Z" fill="white"/>
<path d="M81.5453 16.9453H71.0732V19.2915H74.9565V26.7699H77.6461V19.2915H81.5453V16.9453Z" fill="white"/>
<path d="M93.5384 24.4237H86.652V23.1045H92.0456V20.7583H86.652V19.2915H93.5384V16.9453H83.9624V26.7699H93.5384V24.4237Z" fill="#D14D4D"/>
<path d="M104.098 23.2506L98.8528 16.9453H96.1648V26.7699H98.8528V20.4646L104.098 26.7699H106.786V16.9453H104.098V23.2506Z" fill="#D14D4D"/>
<path d="M109.726 26.7699H119.301V24.4237H112.414V23.1045H117.808V20.7583H112.414V19.2915H119.301V16.9453H109.726V26.7699Z" fill="#D14D4D"/>
<path d="M132.086 20.4614V19.8741C132.086 18.0995 131.159 16.6484 127.814 16.6484H127.396C125.57 16.6484 123.745 16.7465 121.929 16.9421V26.7652H124.619V23.5395C125.579 23.6855 126.575 23.6855 127.636 23.6855L129.638 26.7652H132.238V26.1794L130.385 23.3055C131.668 22.7668 132.086 21.6958 132.086 20.4614ZM126.966 21.3409C126.182 21.3445 125.398 21.3005 124.62 21.209V19.1266C125.606 19.0386 126.742 18.9947 127.428 18.9947C129.385 18.9947 129.399 19.4784 129.399 20.006C129.391 20.9326 129.351 21.344 126.963 21.344L126.966 21.3409Z" fill="#D14D4D"/>
<path d="M145.552 21.842H142.862V24.6578C142.176 24.7159 141.547 24.7458 141.026 24.7458C137.456 24.7458 137.456 23.5287 137.456 21.8577C137.456 20.1868 137.456 18.9838 141.026 18.9838C142.452 18.9914 143.872 19.1739 145.253 19.5272V17.137C143.89 16.817 142.494 16.6547 141.093 16.6533H140.555C135.984 16.6533 134.699 18.8237 134.699 21.4777V22.2393C134.699 24.8934 135.979 27.0637 140.555 27.0637H141.093C142.589 27.0582 144.081 26.9003 145.544 26.5926L145.552 21.842Z" fill="#D14D4D"/>
<path d="M154.444 16.6514H153.906C149.559 16.6514 148.349 18.8217 148.349 21.4757V22.2374C148.349 24.8914 149.559 27.0618 153.906 27.0618H154.444C158.791 27.0618 160 24.8914 160 22.2374V21.4757C160 18.8217 158.791 16.6514 154.444 16.6514ZM154.175 24.7155C151.037 24.7155 151.037 23.3524 151.037 21.8558C151.037 20.3592 151.037 19.0117 154.175 19.0117C157.312 19.0117 157.312 20.3749 157.312 21.8558C157.312 23.3367 157.312 24.7155 154.175 24.7155Z" fill="#D14D4D"/>
</g>
<defs>
<clipPath id="clip0">
<rect width="160" height="43.7569" fill="white"/>
</clipPath>
</defs>
</svg>
