<svg aria-hidden="true" style="position: absolute; width: 0; height: 0; overflow: hidden;" version="1.1" xmlns="http://www.w3.org/2000/svg" xmlns:xlink="http://www.w3.org/1999/xlink">
<defs>
<symbol id="icon-view" viewBox="0 0 32 32">
<title>view</title>
<path fill="#0095e8" style="fill: var(--color1, #0095e8)" d="M29.8 1h-27.6c-0.664 0-1.2 0.536-1.2 1.2v27.6c0 0.664 0.536 1.2 1.2 1.2h27.6c0.664 0 1.2-0.536 1.2-1.2v-27.6c0-0.664-0.536-1.2-1.2-1.2zM20.864 16.33l-7.477 5.88c-0.277 0.218-0.686 0.023-0.686-0.33v-11.756c0-0.352 0.409-0.551 0.686-0.33l7.477 5.876c0.050 0.039 0.090 0.089 0.118 0.147s0.042 0.12 0.042 0.183-0.014 0.126-0.042 0.183c-0.028 0.057-0.068 0.107-0.118 0.147z"></path>
</symbol>
<symbol id="icon-link" viewBox="0 0 58 32">
<title>link</title>
<path fill="#0095e8" style="fill: var(--color1, #0095e8)" d="M6.583 16.002c0-4.69 3.813-8.503 8.503-8.503h10.971v-5.211h-10.971c-3.637 0-7.126 1.445-9.697 4.017s-4.017 6.060-4.017 9.697c0 3.637 1.445 7.126 4.017 9.697s6.060 4.017 9.697 4.017h10.971v-5.211h-10.971c-4.69 0-8.503-3.813-8.503-8.503zM17.829 18.745h21.943v-5.486h-21.943v5.486zM42.514 2.288h-10.971v5.211h10.971c4.69 0 8.503 3.813 8.503 8.503s-3.813 8.503-8.503 8.503h-10.971v5.211h10.971c3.637 0 7.126-1.445 9.698-4.017s4.017-6.060 4.017-9.697c0-3.637-1.445-7.126-4.017-9.697s-6.060-4.017-9.698-4.017z"></path>
</symbol>
<symbol id="icon-burger-menu" viewBox="0 0 32 32">
<title>burger-menu</title>
<path fill="none" stroke="#fff" style="stroke: var(--color2, #fff)" stroke-linejoin="miter" stroke-linecap="butt" stroke-miterlimit="4" stroke-width="2" d="M6 10h20"></path>
<path fill="none" stroke="#fff" style="stroke: var(--color2, #fff)" stroke-linejoin="miter" stroke-linecap="butt" stroke-miterlimit="4" stroke-width="2" d="M6 16h20"></path>
<path fill="none" stroke="#fff" style="stroke: var(--color2, #fff)" stroke-linejoin="miter" stroke-linecap="butt" stroke-miterlimit="4" stroke-width="2" d="M6 22h20"></path>
</symbol>
<symbol id="icon-menu-close" viewBox="0 0 32 32">
<title>menu-close</title>
<path fill="none" stroke="#fff" style="stroke: var(--color2, #fff)" stroke-linejoin="miter" stroke-linecap="round" stroke-miterlimit="4" stroke-width="2" d="M9.266 22.6l13.199-13.199M22.466 22.6l-13.199-13.199"></path>
</symbol>
<symbol id="icon-empty" viewBox="0 0 32 32">
<title>empty</title>
<path fill="none" stroke="#000" style="stroke: var(--color3, #000)" stroke-linejoin="miter" stroke-linecap="butt" stroke-miterlimit="4" stroke-width="2.6667" d="M16 24c-6.548 0-12.101-3.607-14.535-8.667 2.434-5.060 7.988-8.667 14.535-8.667s12.101 3.607 14.535 8.667c-2.434 5.060-7.988 8.667-14.535 8.667z"></path>
<path d="M13.172 11.838c0.75-0.75 1.768-1.172 2.828-1.172s2.078 0.421 2.828 1.172c0.75 0.75 1.172 1.768 1.172 2.828s-0.421 2.078-1.172 2.828c-0.75 0.75-1.768 1.172-2.828 1.172s-2.078-0.421-2.828-1.172c-0.75-0.75-1.172-1.768-1.172-2.828s0.421-2.078 1.172-2.828z"></path>
<path fill="none" stroke="#000" style="stroke: var(--color3, #000)" stroke-linejoin="miter" stroke-linecap="butt" stroke-miterlimit="4" stroke-width="2.6667" d="M30.276 0.943l-26.667 26.667"></path>
</symbol>
<symbol id="icon-cross" viewBox="0 0 32 32">
<title>cross</title>
<path fill="#eb5757" style="fill: var(--color4, #eb5757)" d="M32 3.223l-3.223-3.223-12.777 12.777-12.777-12.777-3.223 3.223 12.777 12.777-12.777 12.777 3.223 3.223 12.777-12.777 12.777 12.777 3.223-3.223-12.777-12.777 12.777-12.777z"></path>
</symbol>
<symbol id="icon-filter-down" viewBox="0 0 18 32">
<title>filter-down</title>
<path fill="#999" style="fill: var(--color5, #999)" d="M9.143 0l7.918 13.714h-15.836l7.918-13.714z"></path>
<path fill="#000" style="fill: var(--color3, #000)" d="M9.143 32l-7.918-13.714h15.836l-7.918 13.714z"></path>
</symbol>
<symbol id="icon-filter-up" viewBox="0 0 18 32">
<title>filter-up</title>
<path fill="#000" style="fill: var(--color3, #000)" d="M9.143 0l7.918 13.714h-15.836l7.918-13.714z"></path>
<path fill="#999" style="fill: var(--color5, #999)" d="M9.143 32l-7.918-13.714h15.836l-7.918 13.714z"></path>
</symbol>
<symbol id="icon-category-burger" viewBox="0 0 46 32">
<title>category-burger</title>
<path d="M44.191 4.572h-42.667v-3.048h42.667v3.048zM44.191 16.763h-42.667v-3.048h42.667v3.048zM1.524 28.953h42.667v-3.048h-42.667v3.048z"></path>
</symbol>
<symbol id="icon-lock" viewBox="0 0 26 32">
<title>lock</title>
<path d="M22.909 11.498c0.868 0 1.7 0.321 2.314 0.893s0.959 1.347 0.959 2.155v14.407c0 0.808-0.345 1.583-0.959 2.155s-1.446 0.892-2.314 0.892h-19.636c-0.868 0-1.7-0.321-2.314-0.892s-0.959-1.347-0.959-2.155v-14.407c0-1.691 1.473-3.048 3.273-3.048h2.545v-3.879c0-3.535 3.136-7.619 7.273-7.619 4.38 0 7.273 3.838 7.273 7.619v3.879h2.545zM13.091 3.048c-2.482 0-4.364 2.45-4.364 4.571v3.879h8.727v-3.879c0-2.121-1.881-4.571-4.364-4.571z"></path>
</symbol>
<symbol id="icon-pencil" viewBox="0 0 32 32">
<title>pencil</title>
<path fill="#d5d5d5" style="fill: var(--color6, #d5d5d5)" d="M18.747 12l1.253 1.253-12.107 12.080h-1.227v-1.227l12.080-12.107zM23.547 4c-0.333 0-0.68 0.133-0.933 0.387l-2.44 2.44 5 5 2.44-2.44c0.52-0.52 0.52-1.387 0-1.88l-3.12-3.12c-0.267-0.267-0.6-0.387-0.947-0.387zM18.747 8.253l-14.747 14.747v5h5l14.747-14.747-5-5z"></path>
</symbol>
<symbol id="icon-checkbox" viewBox="0 0 32 32">
<title>checkbox</title>
<path fill="#0095e8" style="fill: var(--color1, #0095e8)" d="M6.667 4h18.667c1.473 0 2.667 1.194 2.667 2.667v18.667c0 1.473-1.194 2.667-2.667 2.667h-18.667c-1.473 0-2.667-1.194-2.667-2.667v-18.667c0-1.473 1.194-2.667 2.667-2.667z"></path>
<path fill="none" stroke="#fff" style="stroke: var(--color2, #fff)" stroke-linejoin="miter" stroke-linecap="butt" stroke-miterlimit="4" stroke-width="2.6667" d="M10 16.563l4 3.797 8-8.72"></path>
</symbol>
<symbol id="icon-radio" viewBox="0 0 32 32">
<title>radio</title>
<path fill="#4f4f4f" style="fill: var(--color7, #4f4f4f)" d="M16 2.667c-7.36 0-13.333 5.973-13.333 13.333s5.973 13.333 13.333 13.333c7.36 0 13.333-5.973 13.333-13.333s-5.973-13.333-13.333-13.333zM16 26.667c-5.893 0-10.667-4.773-10.667-10.667s4.773-10.667 10.667-10.667c5.893 0 10.667 4.773 10.667 10.667s-4.773 10.667-10.667 10.667z"></path>
<path fill="#0095e8" style="fill: var(--color1, #0095e8)" d="M16 22.667c3.682 0 6.667-2.985 6.667-6.667s-2.985-6.667-6.667-6.667c-3.682 0-6.667 2.985-6.667 6.667s2.985 6.667 6.667 6.667z"></path>
</symbol>
<symbol id="icon-slider" viewBox="0 0 32 32">
<title>slider</title>
<path fill="#4f4f4f" style="fill: var(--color7, #4f4f4f)" d="M26.667 10.907v-6.907c0-0.354-0.141-0.693-0.391-0.943s-0.589-0.391-0.943-0.391c-0.354 0-0.693 0.14-0.943 0.391s-0.391 0.589-0.391 0.943v6.907c-0.772 0.28-1.439 0.791-1.911 1.464s-0.724 1.474-0.724 2.296 0.253 1.623 0.724 2.296c0.472 0.673 1.139 1.184 1.911 1.464v9.573c0 0.354 0.141 0.693 0.391 0.943s0.589 0.391 0.943 0.391c0.354 0 0.693-0.141 0.943-0.391s0.391-0.589 0.391-0.943v-9.573c0.772-0.28 1.439-0.791 1.911-1.464s0.724-1.474 0.724-2.296-0.253-1.623-0.724-2.296c-0.472-0.673-1.139-1.184-1.911-1.464zM25.333 16c-0.264 0-0.521-0.078-0.741-0.225s-0.39-0.355-0.491-0.598-0.127-0.512-0.076-0.77c0.051-0.259 0.178-0.496 0.365-0.683s0.424-0.313 0.683-0.365c0.259-0.051 0.527-0.025 0.77 0.076s0.452 0.272 0.598 0.491c0.147 0.219 0.225 0.477 0.225 0.741 0 0.354-0.141 0.693-0.391 0.943s-0.589 0.391-0.943 0.391zM17.333 18.907v-14.907c0-0.354-0.141-0.693-0.391-0.943s-0.589-0.391-0.943-0.391c-0.354 0-0.693 0.14-0.943 0.391s-0.391 0.589-0.391 0.943v14.907c-0.772 0.28-1.439 0.791-1.911 1.464s-0.724 1.474-0.724 2.296 0.253 1.623 0.724 2.296c0.472 0.673 1.139 1.184 1.911 1.464v1.573c0 0.354 0.141 0.693 0.391 0.943s0.589 0.391 0.943 0.391c0.354 0 0.693-0.141 0.943-0.391s0.391-0.589 0.391-0.943v-1.573c0.772-0.28 1.439-0.791 1.911-1.464s0.724-1.474 0.724-2.296-0.253-1.623-0.724-2.296c-0.472-0.673-1.139-1.184-1.911-1.464zM16 24c-0.264 0-0.521-0.078-0.741-0.225s-0.39-0.355-0.491-0.598-0.127-0.512-0.076-0.77c0.051-0.259 0.178-0.496 0.365-0.683s0.424-0.313 0.683-0.365 0.527-0.025 0.77 0.076c0.244 0.101 0.452 0.272 0.598 0.491s0.225 0.477 0.225 0.741c0 0.354-0.141 0.693-0.391 0.943s-0.589 0.391-0.943 0.391zM8 8.24v-4.24c0-0.354-0.14-0.693-0.391-0.943s-0.589-0.391-0.943-0.391c-0.354 0-0.693 0.14-0.943 0.391s-0.391 0.589-0.391 0.943v4.24c-0.772 0.28-1.439 0.791-1.911 1.464s-0.724 1.474-0.724 2.296c0 0.822 0.253 1.623 0.724 2.296s1.139 1.184 1.911 1.464v12.24c0 0.354 0.14 0.693 0.391 0.943s0.589 0.391 0.943 0.391c0.354 0 0.693-0.141 0.943-0.391s0.391-0.589 0.391-0.943v-12.24c0.772-0.28 1.439-0.791 1.911-1.464s0.724-1.474 0.724-2.296-0.253-1.623-0.724-2.296c-0.472-0.673-1.139-1.184-1.911-1.464zM6.667 13.333c-0.264 0-0.521-0.078-0.741-0.225s-0.39-0.355-0.491-0.598c-0.101-0.244-0.127-0.512-0.076-0.77s0.178-0.496 0.365-0.683c0.186-0.186 0.424-0.313 0.683-0.365s0.527-0.025 0.77 0.076c0.244 0.101 0.452 0.272 0.598 0.491s0.225 0.477 0.225 0.741c0 0.354-0.14 0.693-0.391 0.943s-0.589 0.391-0.943 0.391z"></path>
<path fill="#0095e8" style="fill: var(--color1, #0095e8)" d="M10.667 12c0 2.209-1.791 4-4 4s-4-1.791-4-4c0-2.209 1.791-4 4-4s4 1.791 4 4z"></path>
<path fill="#fff" style="fill: var(--color2, #fff)" d="M8 12c0 0.736-0.597 1.333-1.333 1.333s-1.333-0.597-1.333-1.333c0-0.736 0.597-1.333 1.333-1.333s1.333 0.597 1.333 1.333z"></path>
<path fill="#0095e8" style="fill: var(--color1, #0095e8)" d="M20 22.667c0 2.209-1.791 4-4 4s-4-1.791-4-4c0-2.209 1.791-4 4-4s4 1.791 4 4z"></path>
<path fill="#fff" style="fill: var(--color2, #fff)" d="M17.333 22.667c0 0.736-0.597 1.333-1.333 1.333s-1.333-0.597-1.333-1.333c0-0.736 0.597-1.333 1.333-1.333s1.333 0.597 1.333 1.333z"></path>
<path fill="#0095e8" style="fill: var(--color1, #0095e8)" d="M29.333 14.667c0 2.209-1.791 4-4 4s-4-1.791-4-4c0-2.209 1.791-4 4-4s4 1.791 4 4z"></path>
<path fill="#fff" style="fill: var(--color2, #fff)" d="M26.667 14.667c0 0.736-0.597 1.333-1.333 1.333s-1.333-0.597-1.333-1.333c0-0.736 0.597-1.333 1.333-1.333s1.333 0.597 1.333 1.333z"></path>
</symbol>
<symbol id="icon-filter" viewBox="0 0 18 32">
<title>filter</title>
<path fill="#999" style="fill: var(--color5, #999)" d="M9.143 0l7.918 13.714h-15.836l7.918-13.714z"></path>
<path fill="#999" style="fill: var(--color5, #999)" d="M9.143 32l-7.918-13.714h15.836l-7.918 13.714z"></path>
</symbol>
<symbol id="icon-refresh" viewBox="0 0 32 32">
<title>refresh</title>
<path fill="#0095e8" style="fill: var(--color1, #0095e8)" d="M32 12.658h-12.053l4.871-5.013c-4.853-4.8-12.711-4.978-17.564-0.178-4.853 4.818-4.853 12.587 0 17.422 4.853 4.8 12.711 4.8 17.564 0 2.418-2.4 3.627-5.191 3.627-8.711h3.556c0 3.52-1.564 8.089-4.693 11.182-6.24 6.187-16.373 6.187-22.613 0-6.222-6.169-6.276-16.196-0.036-22.364s16.249-6.169 22.489 0l4.853-4.996v12.658z"></path>
</symbol>
<symbol id="icon-close" viewBox="0 0 32 32">
<title>close</title>
<path stroke-linejoin="miter" stroke-linecap="round" stroke-miterlimit="4" stroke-width="2.6667" d="M9.266 22.6l13.199-13.199M22.466 22.6l-13.199-13.199"></path>
</symbol>
<symbol id="icon-delete" viewBox="0 0 32 32">
<title>delete</title>
<path fill="#eb5757" style="fill: var(--color4, #eb5757)" d="M26.7 4.838h0.889c0-0.491-0.398-0.889-0.889-0.889v0.889zM26.7 27.777v0zM5.324 27.777v0zM5.323 4.838v-0.889c-0.236 0-0.462 0.094-0.629 0.26s-0.26 0.393-0.26 0.629l0.889-0zM12.383 1.333v-0.889c-0.236 0-0.462 0.094-0.629 0.26s-0.26 0.393-0.26 0.629l0.889-0zM19.533 1.333l0.889-0c0-0.491-0.398-0.889-0.889-0.889v0.889zM0.836 5.727h30.325v-1.778h-30.325v1.778zM25.811 4.838l0 22.94h1.778l-0-22.94-1.778 0zM23.494 29.778h-15.062v1.778h15.062v-1.778zM6.212 27.777l-0-22.94-1.778 0 0 22.94h1.778zM5.323 5.727h21.376v-1.778h-21.376v1.778zM8.433 29.778c-1.354 0-2.22-0.861-2.22-2h-1.778c0 2.263 1.811 3.778 3.998 3.778v-1.778zM25.811 27.777c0 1.106-0.925 2-2.316 2v1.778c2.15 0 4.094-1.482 4.094-3.778h-1.778zM11.513 9.339v16.059h1.778v-16.059h-1.778zM18.577 9.339v16.057h1.778v-16.057h-1.778zM12.383 2.222h7.15v-1.778h-7.15v1.778zM13.272 4.838l-0-3.504-1.778 0 0 3.504 1.778-0zM18.644 1.333l0 3.504 1.778-0-0-3.504-1.778 0z"></path>
</symbol>
<symbol id="icon-dropdown" viewBox="0 0 53 32">
<title>dropdown</title>
<path fill="none" stroke="#484848" style="stroke: var(--color8, #484848)" stroke-linejoin="round" stroke-linecap="round" stroke-miterlimit="4" stroke-width="8" d="M5.333 5.333l21.333 21.333 21.333-21.333"></path>
</symbol>
<symbol id="icon-arrow-left-dis" viewBox="0 0 40 32">
<title>arrow-left-dis</title>
<path fill="none" stroke="#aaa" style="stroke: var(--color9, #aaa)" stroke-linejoin="miter" stroke-linecap="butt" stroke-miterlimit="4" stroke-width="4" d="M40 16h-37.333M2.667 16l13.333-13.333M2.667 16l13.333 13.333"></path>
</symbol>
<symbol id="icon-arrow-left" viewBox="0 0 32 32">
<title>arrow-left</title>
<path fill="none" stroke="#484848" style="stroke: var(--color8, #484848)" stroke-linejoin="round" stroke-linecap="round" stroke-miterlimit="4" stroke-width="10.6667" d="M21.333 26.667l-10.667-10.667 10.667-10.667"></path>
</symbol>
<symbol id="icon-check" viewBox="0 0 32 32">
<title>check</title>
<path d="M27.768 3.986l4.232 4.232-19.796 19.796-12.204-12.204 4.232-4.232 7.972 7.972 15.564-15.564z"></path>
</symbol>
<symbol id="icon-manage" viewBox="0 0 32 32">
<title>manage</title>
<path fill="#0092ff" style="fill: var(--color10, #0092ff)" d="M16 10.074c1.572 0 3.079 0.624 4.19 1.736s1.736 2.619 1.736 4.19c0 1.572-0.624 3.079-1.736 4.19s-2.619 1.736-4.19 1.736-3.079-0.624-4.19-1.736c-1.111-1.111-1.736-2.619-1.736-4.19s0.624-3.079 1.736-4.19c1.111-1.111 2.619-1.736 4.19-1.736zM16 13.037c-0.786 0-1.539 0.312-2.095 0.868s-0.868 1.309-0.868 2.095c0 0.786 0.312 1.539 0.868 2.095s1.309 0.868 2.095 0.868 1.539-0.312 2.095-0.868c0.556-0.556 0.868-1.309 0.868-2.095s-0.312-1.539-0.868-2.095c-0.556-0.556-1.309-0.868-2.095-0.868zM13.037 30.815c-0.37 0-0.681-0.267-0.741-0.622l-0.548-3.926c-0.933-0.37-1.733-0.874-2.504-1.467l-3.689 1.496c-0.326 0.119-0.726 0-0.904-0.326l-2.963-5.126c-0.193-0.326-0.104-0.726 0.178-0.948l3.126-2.459-0.104-1.437 0.104-1.482-3.126-2.415c-0.281-0.222-0.37-0.622-0.178-0.948l2.963-5.126c0.178-0.326 0.578-0.459 0.904-0.326l3.689 1.481c0.77-0.578 1.57-1.081 2.504-1.452l0.548-3.926c0.059-0.356 0.37-0.622 0.741-0.622h5.926c0.37 0 0.681 0.267 0.741 0.622l0.548 3.926c0.933 0.37 1.733 0.874 2.504 1.452l3.689-1.481c0.326-0.133 0.726 0 0.904 0.326l2.963 5.126c0.193 0.326 0.104 0.726-0.178 0.948l-3.126 2.415 0.104 1.482-0.104 1.481 3.126 2.415c0.281 0.222 0.37 0.622 0.178 0.948l-2.963 5.126c-0.178 0.326-0.578 0.459-0.904 0.326l-3.689-1.481c-0.77 0.578-1.57 1.081-2.504 1.452l-0.548 3.926c-0.059 0.356-0.37 0.622-0.741 0.622h-5.926zM14.889 4.148l-0.548 3.867c-1.778 0.37-3.348 1.319-4.489 2.637l-3.57-1.541-1.111 1.926 3.126 2.296c-0.593 1.733-0.593 3.615 0 5.333l-3.141 2.311 1.111 1.926 3.6-1.541c1.141 1.304 2.696 2.252 4.459 2.607l0.548 3.881h2.252l0.548-3.867c1.763-0.37 3.318-1.319 4.459-2.622l3.6 1.541 1.111-1.926-3.141-2.296c0.593-1.733 0.593-3.615 0-5.348l3.126-2.296-1.111-1.926-3.57 1.541c-1.141-1.319-2.711-2.267-4.489-2.622l-0.548-3.881h-2.222z"></path>
</symbol>
<symbol id="icon-search" viewBox="0 0 32 32">
<title>search</title>
<path fill="#d5d5d5" style="fill: var(--color6, #d5d5d5)" d="M11.606 0c3.078 0 6.030 1.223 8.206 3.399s3.399 5.128 3.399 8.206c0 2.875-1.054 5.517-2.785 7.553l0.482 0.482h1.411l8.927 8.927-2.678 2.678-8.927-8.927v-1.411l-0.482-0.482c-2.035 1.732-4.678 2.785-7.553 2.785-3.078 0-6.030-1.223-8.206-3.399s-3.399-5.128-3.399-8.206c0-3.078 1.223-6.030 3.399-8.206s5.128-3.399 8.206-3.399zM11.606 3.571c-4.464 0-8.035 3.571-8.035 8.035s3.571 8.035 8.035 8.035c4.464 0 8.035-3.571 8.035-8.035s-3.571-8.035-8.035-8.035z"></path>
</symbol>
<symbol id="icon-triangle" viewBox="0 0 32 32">
<title>triangle</title>
<path fill="#575757" style="fill: var(--color11, #575757)" d="M2.663 9.069l13.333 13.333 13.333-13.333h-26.667z"></path>
</symbol>
</defs>
</svg>
